<svg width="8" height="8" viewBox="0 0 8 8" fill="none" xmlns="http://www.w3.org/2000/svg">
<path d="M0.181178 6.8964C-0.0587605 7.13634 -0.0636572 7.56235 0.186075 7.81208C0.440704 8.06182 0.866718 8.05692 1.10176 7.82188L4.00061 4.92303L6.89457 7.81698C7.1394 8.06182 7.56052 8.06182 7.81025 7.81208C8.05999 7.55746 8.05999 7.14124 7.81515 6.8964L4.92119 4.00245L7.81515 1.1036C8.05999 0.858764 8.06488 0.437647 7.81025 0.187916C7.56052 -0.0618164 7.1394 -0.0618164 6.89457 0.183019L4.00061 3.07697L1.10176 0.183019C0.866718 -0.0569196 0.435807 -0.0667131 0.186075 0.187916C-0.0636572 0.437647 -0.0587605 0.868557 0.181178 1.1036L3.07513 4.00245L0.181178 6.8964Z" fill="#151C30"/>
</svg>
