<svg width="22" height="14" viewBox="0 0 22 14" fill="none" xmlns="http://www.w3.org/2000/svg">
<path fill-rule="evenodd" clip-rule="evenodd" d="M11 3.25C8.92893 3.25 7.25 4.92893 7.25 7C7.25 9.07107 8.92893 10.75 11 10.75C13.0711 10.75 14.75 9.07107 14.75 7C14.75 4.92893 13.0711 3.25 11 3.25ZM8.75 7C8.75 5.75736 9.75736 4.75 11 4.75C12.2426 4.75 13.25 5.75736 13.25 7C13.25 8.24264 12.2426 9.25 11 9.25C9.75736 9.25 8.75 8.24264 8.75 7Z" fill="#D8D8D8"/>
<path fill-rule="evenodd" clip-rule="evenodd" d="M10.9999 0.25C8.55201 0.25 6.33989 1.32121 4.61227 2.53372C2.87787 3.75099 1.56501 5.15745 0.899765 5.93515C0.371953 6.55219 0.371954 7.44781 0.899765 8.06485C1.56501 8.84255 2.87787 10.249 4.61227 11.4663C6.33989 12.6788 8.55201 13.75 10.9999 13.75C13.4479 13.75 15.66 12.6788 17.3876 11.4663C19.122 10.249 20.4349 8.84255 21.1001 8.06485C21.6279 7.44781 21.6279 6.55219 21.1001 5.93515C20.4349 5.15745 19.122 3.75099 17.3876 2.53372C15.66 1.32121 13.4479 0.25 10.9999 0.25ZM2.03963 6.91019C2.66026 6.18464 3.88066 4.87976 5.47398 3.76151C7.07409 2.63849 8.98416 1.75 10.9999 1.75C13.0157 1.75 14.9258 2.63849 16.5259 3.76151C18.1192 4.87976 19.3396 6.18464 19.9603 6.91019C19.9871 6.94154 19.996 6.97291 19.996 7C19.996 7.02709 19.9871 7.05846 19.9603 7.08981C19.3396 7.81536 18.1192 9.12024 16.5259 10.2385C14.9258 11.3615 13.0157 12.25 10.9999 12.25C8.98416 12.25 7.07409 11.3615 5.47398 10.2385C3.88066 9.12024 2.66026 7.81536 2.03963 7.08981C2.01281 7.05846 2.00391 7.02709 2.00391 7C2.00391 6.97291 2.01281 6.94154 2.03963 6.91019Z" fill="#D8D8D8"/>
</svg>
